<?xml version="1.0" standalone="no"?>
<!DOCTYPE svg PUBLIC "-//W3C//DTD SVG 20010904//EN"
 "http://www.w3.org/TR/2001/REC-SVG-20010904/DTD/svg10.dtd">
<svg version="1.0" xmlns="http://www.w3.org/2000/svg"
 width="723.000000pt" height="723.000000pt" viewBox="0 0 723.000000 723.000000"
 preserveAspectRatio="xMidYMid meet">
<metadata>
Created by potrace 1.11, written by Peter Selinger 2001-2013
</metadata>
<g transform="translate(0.000000,723.000000) scale(0.100000,-0.100000)"
fill="#000000" stroke="none">
<path d="M3160 6789 c-52 -5 -115 -16 -140 -25 -64 -24 -291 -140 -315 -161
-11 -10 -33 -26 -48 -36 -18 -12 -26 -24 -23 -34 3 -8 3 -20 -1 -26 -5 -8 -9
-4 -13 10 -5 20 -6 20 -43 6 -24 -10 -39 -24 -43 -39 -3 -13 -13 -24 -22 -24
-30 0 -122 -80 -129 -111 -3 -16 -10 -29 -15 -29 -16 0 -100 -90 -144 -156
-54 -78 -65 -129 -72 -317 -4 -126 -1 -173 12 -235 10 -42 24 -106 31 -142 29
-134 46 -242 47 -301 1 -48 5 -62 20 -70 24 -13 34 -6 42 32 5 28 8 30 23 18
39 -33 57 -100 64 -239 3 -78 13 -159 23 -192 9 -31 27 -105 39 -164 25 -123
47 -150 47 -58 0 57 -2 75 -36 266 -17 98 -17 109 5 369 11 118 38 190 110
294 23 32 41 63 41 69 0 6 9 28 20 49 19 35 23 58 18 97 -3 26 71 168 90 172
10 3 51 1 92 -5 59 -7 79 -6 99 6 21 11 43 13 107 6 44 -4 93 -13 108 -19 15
-5 41 -10 57 -10 17 0 29 -5 29 -13 0 -19 38 -38 64 -31 30 7 130 -42 174 -87
25 -26 43 -34 88 -40 32 -4 70 -17 85 -28 31 -23 59 -27 75 -11 8 8 33 5 84
-9 56 -16 83 -30 112 -58 21 -20 38 -40 38 -43 0 -7 -112 -61 -127 -60 -6 0
-18 -8 -25 -18 -15 -22 -112 -39 -123 -22 -15 24 -58 9 -109 -40 -29 -27 -58
-50 -64 -50 -17 0 -52 41 -52 61 0 23 -18 28 -55 16 -25 -7 -46 -3 -110 21
-80 30 -110 34 -295 35 -60 1 -71 -2 -144 -47 -91 -54 -115 -80 -116 -119 l0
-27 58 6 57 7 -52 -56 c-29 -31 -53 -62 -53 -71 0 -39 11 -46 75 -46 35 0 67
-5 70 -11 4 -5 18 -14 31 -19 16 -6 24 -18 24 -32 0 -15 18 -38 51 -65 50 -42
52 -43 127 -43 68 0 84 4 156 40 128 63 176 115 176 191 0 38 4 51 22 63 35
25 56 20 72 -18 8 -19 23 -39 34 -45 22 -12 35 -97 37 -250 1 -76 5 -95 18
-103 9 -5 17 -18 17 -29 0 -40 30 -80 74 -99 46 -19 76 -52 76 -82 0 -22 -40
-24 -97 -4 -34 12 -49 12 -103 -1 -35 -8 -87 -26 -116 -40 l-53 -26 -27 22
c-32 25 -89 28 -139 7 -45 -19 -45 -46 0 -80 33 -25 37 -26 57 -12 31 22 60
21 56 -1 -2 -13 -14 -19 -41 -21 -20 -2 -37 -7 -37 -12 0 -5 -17 -12 -37 -16
-21 -3 -48 -13 -61 -21 -20 -12 -25 -12 -44 2 -30 20 -61 19 -108 -5 -72 -37
-124 -112 -132 -189 -3 -30 2 -38 31 -58 46 -31 98 -30 147 3 21 15 61 30 89
34 27 4 64 14 82 21 27 11 44 11 100 0 37 -8 83 -13 102 -13 24 1 41 -6 56
-22 17 -18 37 -25 90 -31 78 -8 119 -21 111 -34 -7 -11 -91 -22 -181 -22 -113
-1 -171 -14 -216 -49 -44 -36 -48 -49 -19 -75 11 -10 19 -26 18 -35 -2 -9 17
-38 42 -63 37 -40 50 -47 82 -47 27 0 46 -8 72 -30 21 -19 37 -27 41 -20 7 12
25 4 25 -12 0 -6 -19 -28 -42 -49 -36 -32 -50 -39 -85 -39 -23 0 -66 -6 -96
-14 -61 -16 -127 -8 -156 18 -24 22 -57 20 -88 -4 -19 -14 -30 -17 -43 -10
-10 5 -32 7 -49 4 -23 -5 -32 -2 -37 10 -3 9 -16 16 -28 16 -26 0 -41 10 -49
33 -5 12 -13 16 -29 12 -18 -4 -36 6 -76 41 -29 25 -60 60 -69 78 -14 28 -116
136 -129 136 -10 0 8 -45 26 -65 10 -11 32 -45 49 -75 17 -30 55 -83 85 -118
30 -35 62 -85 71 -110 40 -106 134 -221 225 -274 45 -27 130 -104 130 -118 0
-5 17 -30 38 -57 70 -89 104 -163 68 -150 -8 3 -22 -3 -31 -13 -15 -17 -15
-19 1 -28 13 -7 26 -6 45 4 29 14 84 10 95 -8 10 -16 -18 -88 -39 -99 -13 -8
-27 -7 -47 1 -15 6 -39 10 -52 8 -20 -3 -23 -8 -20 -38 1 -19 7 -36 12 -38 5
-2 4 -12 -3 -23 -10 -17 -9 -22 4 -32 9 -7 24 -35 33 -62 18 -53 20 -50 -31
-81 -14 -10 -16 -14 -5 -25 17 -18 15 -54 -4 -70 -31 -26 -64 -89 -64 -122 0
-22 11 -49 29 -74 16 -22 39 -60 51 -84 26 -50 46 -73 54 -60 4 5 30 17 59 27
28 9 101 41 162 71 108 53 142 60 169 33 5 -5 4 -45 -2 -96 -7 -48 -9 -90 -7
-93 3 -2 22 5 43 16 20 12 61 24 90 28 45 6 51 5 46 -9 -10 -26 38 -19 65 9
22 24 48 35 36 16 -3 -5 -1 -12 4 -16 6 -3 15 3 21 14 6 13 23 21 47 23 20 2
38 8 40 14 7 20 -169 34 -220 18 -35 -11 -13 20 27 40 31 15 43 17 57 8 27
-17 93 -25 136 -17 26 5 50 20 80 52 24 25 47 42 51 39 3 -4 -1 -29 -11 -55
-23 -64 -22 -74 2 -61 11 5 25 26 32 45 7 19 18 35 24 35 6 0 20 15 30 33 l20
32 3 -38 c4 -51 25 -43 35 14 20 108 67 221 67 161 0 -12 4 -22 9 -22 9 0 21
71 21 121 0 16 4 29 9 29 11 0 23 -150 15 -200 -7 -42 -13 -47 -32 -28 -18 18
-39 -7 -57 -68 -11 -37 -29 -68 -56 -96 -22 -23 -47 -55 -55 -71 -9 -17 -21
-26 -29 -23 -7 2 -21 -6 -30 -20 -9 -14 -21 -24 -28 -23 -7 2 -32 -7 -57 -18
-25 -11 -58 -25 -75 -30 -18 -5 -40 -24 -54 -46 -13 -20 -32 -37 -41 -37 -10
0 -22 -6 -28 -13 -17 -20 -93 -51 -217 -91 -147 -46 -195 -63 -227 -81 -34
-19 -52 -19 -44 0 3 8 9 21 12 29 6 16 -27 30 -206 82 -138 41 -217 57 -270
55 -67 -2 -54 -43 28 -85 28 -14 51 -36 66 -62 22 -40 55 -52 84 -31 9 7 17 4
27 -9 22 -30 13 -38 -38 -35 -53 3 -68 -13 -49 -55 10 -21 18 -24 68 -24 40 0
54 -3 51 -12 -2 -7 -12 -12 -21 -10 -21 4 -76 -19 -76 -32 0 -5 23 -6 50 -4
42 4 50 2 50 -11 0 -13 -10 -17 -36 -18 -44 -1 -69 -23 -60 -51 6 -17 17 -22
54 -24 l47 -3 17 -100 c9 -55 19 -143 22 -195 4 -52 9 -128 12 -169 l5 -73
-34 6 c-25 5 -40 2 -57 -12 -22 -18 -23 -20 -7 -52 10 -18 14 -43 11 -56 -5
-18 -2 -24 10 -24 20 0 20 -7 1 -26 -17 -17 -19 -52 -6 -73 6 -10 22 -12 54
-9 25 3 50 2 55 -1 6 -3 12 -27 14 -51 3 -41 6 -45 30 -48 19 -2 36 5 54 23
24 24 25 27 10 44 -17 19 -21 43 -8 55 4 4 7 25 8 47 0 30 -4 40 -19 45 -17 5
-18 7 -1 25 13 15 14 22 5 33 -9 11 -7 18 14 34 l25 20 -30 32 c-22 24 -28 38
-24 56 3 13 2 24 -2 24 -10 0 -34 70 -34 99 0 11 -5 23 -11 26 -6 4 -8 13 -5
20 2 7 -2 75 -10 151 -18 187 -19 176 13 168 23 -6 32 -1 65 37 l38 44 25 -27
c37 -40 62 -25 57 34 -1 9 5 29 13 45 8 15 15 38 15 51 0 12 5 22 10 22 6 0
10 -20 10 -44 0 -44 12 -66 25 -46 8 13 55 13 55 1 0 -6 -4 -13 -10 -16 -16
-10 -12 -40 8 -66 22 -28 38 -128 47 -279 10 -196 10 -287 -3 -302 -9 -11 -9
-17 0 -26 7 -7 14 -51 16 -105 7 -186 8 -202 15 -215 5 -6 8 -42 8 -80 0 -37
2 -75 5 -84 8 -25 31 -22 38 5 10 37 6 505 -5 612 -12 116 -21 532 -13 588 4
22 11 36 17 34 13 -4 13 -54 2 -99 -5 -20 -2 -36 11 -55 10 -16 17 -31 16 -35
-4 -15 29 -8 34 7 4 8 10 15 14 15 4 0 24 14 43 31 37 33 40 64 6 74 -22 7
-24 16 -7 33 8 8 8 15 -2 27 -11 13 -7 17 23 30 30 12 37 21 42 52 3 21 10 52
15 69 6 17 10 39 11 50 1 30 29 -68 29 -102 0 -18 9 -42 19 -55 l19 -24 6 25
c2 14 7 45 10 70 23 181 36 225 36 124 1 -32 7 -70 14 -83 8 -14 11 -41 8 -68
-4 -42 -3 -44 27 -56 31 -11 42 -27 19 -27 -7 0 -5 -7 5 -18 11 -12 14 -29 10
-59 -7 -52 17 -70 74 -54 45 13 53 4 53 -55 0 -23 5 -66 11 -95 7 -31 13 -169
14 -329 1 -151 6 -340 10 -418 l8 -144 30 6 c16 3 34 6 39 6 5 0 8 17 8 38 -1
20 -1 169 0 330 0 161 -4 310 -9 330 -5 20 -10 57 -11 82 -3 81 0 253 4 249
19 -20 45 -546 48 -971 0 -30 4 -38 18 -38 15 0 18 9 19 47 1 27 5 89 9 138
l8 90 8 -127 c9 -136 10 -138 61 -118 l27 10 -6 313 c-2 171 -9 346 -14 387
-16 122 -27 630 -13 630 6 0 11 -18 11 -42 0 -24 4 -49 9 -57 5 -8 6 -24 1
-36 -7 -19 11 -120 24 -133 3 -2 1 -13 -5 -23 -12 -23 -2 -66 17 -73 8 -3 26
-1 40 4 24 9 25 12 20 74 -3 35 -1 78 4 97 7 24 6 38 -4 54 -10 14 -11 26 -5
36 5 8 8 45 7 84 -3 67 -2 70 25 83 28 14 38 54 16 67 -7 5 -5 13 6 25 15 17
13 20 -27 49 -24 17 -55 38 -69 48 -22 14 -69 78 -116 157 -7 13 -10 48 -8 96
16 297 16 401 0 511 -15 110 -69 304 -87 315 -4 3 -8 12 -8 20 0 8 -9 33 -19
57 -11 23 -31 74 -46 112 -31 81 -86 157 -144 200 -55 41 -54 68 7 170 45 78
57 100 80 155 24 59 52 161 52 193 0 35 28 67 58 67 15 0 34 5 42 10 13 9 13
12 -2 21 -46 27 -42 93 4 68 33 -18 48 -4 48 46 0 37 4 47 23 56 27 12 39 36
82 162 19 53 50 129 70 168 70 137 88 237 50 279 -21 23 -84 27 -147 8 -65
-19 -68 -5 -24 119 110 311 120 351 110 431 -5 37 -7 74 -6 82 1 8 8 65 14
125 10 104 9 113 -11 157 -11 26 -21 53 -21 60 0 24 -66 211 -93 263 -30 58
-90 123 -203 218 -91 77 -107 87 -254 153 -58 26 -121 57 -140 69 -43 27 -89
42 -155 51 -27 3 -77 12 -110 20 -33 7 -118 15 -190 18 -71 3 -164 8 -205 10
-41 2 -118 0 -170 -5z m-146 -1711 c28 -37 21 -54 -18 -44 -33 8 -52 42 -35
62 17 20 25 18 53 -18z m1442 -186 c-10 -10 -29 15 -21 28 6 9 10 8 17 -4 6
-10 7 -20 4 -24z m-123 7 c32 -8 37 -14 37 -39 0 -37 -41 -118 -79 -153 -16
-15 -33 -42 -36 -59 -17 -74 -90 -125 -141 -97 -20 10 -29 10 -50 -1 -20 -11
-29 -12 -44 -2 -11 7 -28 12 -38 12 -30 0 -101 88 -106 133 -2 12 -9 34 -16
50 -17 35 -9 42 32 27 31 -11 37 -10 78 17 25 17 71 35 103 41 31 6 92 27 135
46 91 41 78 38 125 25z m207 -433 c0 -25 -12 -46 -26 -46 -15 0 -18 18 -8 44
8 20 34 21 34 2z m-271 -2020 c-2 -2 -15 -9 -29 -16 -23 -12 -24 -12 -11 3 7
10 20 17 29 17 8 0 13 -2 11 -4z m-102 -88 c-6 -3 -14 -5 -18 -2 -4 2 -17 -9
-29 -26 -13 -19 -30 -30 -45 -30 -13 0 -32 -11 -43 -25 -13 -16 -23 -22 -27
-15 -9 15 88 102 128 115 32 11 58 -2 34 -17z m56 7 c7 -16 -8 -29 -23 -20
-15 9 -12 35 4 35 8 0 16 -7 19 -15z m-817 -662 c-7 -7 -26 7 -26 19 0 6 6 6
15 -2 9 -7 13 -15 11 -17z m-48 -51 c8 -29 12 -55 9 -58 -11 -11 -27 7 -27 31
0 13 -4 27 -10 30 -5 3 -10 18 -10 31 0 42 23 22 38 -34z m157 -82 c-3 -5 -10
-10 -16 -10 -5 0 -9 5 -9 10 0 6 7 10 16 10 8 0 12 -4 9 -10z m1009 -87 c16
-162 33 -460 26 -472 -13 -24 -20 4 -26 96 -4 48 -8 108 -10 133 -12 135 -15
300 -6 300 6 0 13 -26 16 -57z m26 -572 c-7 -11 -9 -3 -9 29 1 42 1 43 9 16 6
-17 5 -36 0 -45z m3 -61 l-7 -25 -6 25 c-8 28 -2 46 11 33 5 -5 5 -20 2 -33z"/>
<path d="M2063 5086 c-26 -23 -28 -29 -27 -98 0 -74 26 -150 44 -132 5 5 16
40 25 78 8 38 24 83 35 101 20 33 17 46 -17 64 -28 15 -27 15 -60 -13z"/>
<path d="M2270 4852 c-39 -19 -80 -74 -80 -107 0 -32 38 -105 55 -105 9 0 15
9 15 23 0 31 34 84 60 92 30 10 43 50 28 83 -16 33 -33 36 -78 14z"/>
<path d="M3147 4663 c-4 -3 -7 -16 -7 -27 0 -12 -16 -43 -35 -70 -37 -52 -45
-82 -21 -73 51 20 99 62 118 103 19 44 19 46 1 59 -19 15 -46 19 -56 8z"/>
<path d="M3020 4480 c-8 -5 -11 -12 -8 -16 10 -9 38 3 38 16 0 12 -10 13 -30
0z"/>
<path d="M2449 4394 c-12 -32 -7 -38 20 -29 14 4 21 15 21 31 0 33 -28 31 -41
-2z"/>
<path d="M2940 3915 c-50 -37 -53 -55 -22 -118 l27 -54 68 2 c37 1 70 5 73 8
9 9 -15 84 -31 97 -8 7 -15 18 -15 25 0 18 -39 65 -54 65 -7 0 -28 -11 -46
-25z"/>
<path d="M2558 3370 c-12 -16 -27 -30 -34 -30 -22 0 -112 -99 -147 -163 -32
-58 -37 -79 -52 -208 -21 -185 -22 -367 -2 -406 8 -15 19 -40 25 -55 7 -16 18
-25 29 -25 17 2 34 -35 48 -105 4 -20 12 -28 26 -28 22 0 25 -7 32 -67 5 -42
5 -42 -46 -69 -84 -43 -164 -170 -125 -198 9 -6 24 -43 33 -81 21 -83 31 -98
62 -92 15 3 23 -1 23 -9 0 -8 -8 -14 -17 -15 -15 0 -15 -2 2 -8 49 -21 53 -36
54 -201 0 -227 22 -419 47 -427 14 -5 34 75 34 132 0 22 0 54 0 70 0 17 -2 51
-6 78 -3 26 -3 60 1 75 l7 27 13 -24 c8 -15 11 -49 9 -90 -1 -35 2 -73 7 -84
10 -18 11 -18 26 3 10 14 13 31 8 48 -10 44 -15 116 -8 137 5 18 7 18 16 -5 5
-14 11 -54 12 -90 2 -36 9 -110 17 -165 12 -93 15 -100 37 -103 l24 -4 -6 211
c-4 116 -10 219 -15 229 -9 17 -20 127 -26 250 -3 70 10 81 34 29 21 -44 47
-47 64 -6 8 18 12 39 9 46 -3 7 2 13 11 13 9 0 16 -4 16 -10 0 -5 7 -10 15
-10 22 0 18 20 -10 63 -27 39 -49 47 -59 22 -4 -12 -10 -14 -25 -5 -11 5 -36
10 -56 10 -25 0 -37 5 -41 18 -3 9 -10 25 -15 35 -26 48 31 50 60 2 23 -39 50
-45 77 -17 10 9 25 17 33 18 9 1 25 2 37 3 11 0 29 7 39 15 16 11 17 17 7 29
-10 12 -9 16 3 21 24 9 8 26 -26 26 -30 0 -41 -23 -16 -33 7 -3 5 -6 -5 -6
-10 -1 -26 -10 -36 -21 -18 -19 -20 -19 -33 -4 -11 13 -11 18 -1 21 22 8 13
43 -13 53 -14 5 -25 16 -25 24 0 7 -7 16 -15 20 -11 4 -15 17 -13 43 3 38 4
38 51 41 26 2 47 5 47 8 0 3 -9 24 -20 46 -11 23 -20 51 -20 62 0 11 -9 29
-20 41 -11 12 -29 47 -40 78 -18 50 -20 83 -20 304 0 215 -3 266 -24 385 -30
175 -36 184 -78 128z m47 -1562 c3 -7 9 -53 15 -102 10 -94 2 -128 -25 -106
-9 8 -18 6 -30 -6 -25 -25 -33 -4 -33 85 0 42 -1 81 -2 86 -5 22 1 35 15 35
10 0 15 -10 15 -30 0 -16 5 -30 11 -30 7 0 9 11 6 27 -6 30 1 53 14 53 5 0 12
-6 14 -12z"/>
<path d="M2570 1680 c0 -22 4 -40 9 -40 12 0 25 56 16 70 -13 22 -25 8 -25
-30z"/>
<path d="M4925 3120 c-8 -12 72 -150 97 -168 11 -8 18 -26 18 -45 0 -42 35
-133 50 -129 34 8 61 36 57 59 -7 36 10 37 27 2 19 -37 20 -95 5 -153 -6 -22
-15 -59 -21 -81 -17 -67 -21 -72 -27 -30 -4 25 -11 40 -20 40 -19 0 -60 -73
-61 -107 0 -40 -10 -59 -36 -69 -25 -9 -34 -52 -14 -64 18 -11 11 -32 -12 -39
l-23 -7 23 -9 c25 -10 26 -17 12 -54 -7 -18 -5 -33 5 -53 8 -15 15 -42 15 -60
0 -42 13 -48 56 -28 27 13 34 21 29 35 -3 11 -2 28 4 37 13 23 17 11 26 -77 8
-71 15 -361 9 -371 -2 -4 -21 -3 -43 1 -21 4 -46 3 -55 -2 -21 -12 -20 -54 2
-67 15 -9 15 -12 2 -21 -12 -8 -13 -13 -2 -30 9 -15 10 -26 1 -41 -6 -12 -8
-32 -5 -45 5 -20 13 -24 41 -24 22 0 37 6 44 18 9 15 11 14 19 -9 18 -46 25
-200 13 -281 -7 -42 -13 -109 -15 -150 -1 -40 -5 -72 -9 -70 -4 1 -12 2 -18 2
-6 0 -8 9 -4 21 11 33 -4 114 -23 126 -16 9 -17 5 -12 -54 6 -67 -9 -110 -47
-140 -13 -10 -10 -14 22 -27 31 -13 35 -19 25 -30 -6 -8 -10 -23 -9 -33 1 -10
-1 -30 -5 -46 -8 -27 -3 -61 13 -85 10 -16 81 17 229 107 l94 56 -4 145 c-2
80 3 228 11 330 10 134 11 234 5 365 -12 248 -7 953 8 1037 9 54 8 76 -2 107
-11 35 -17 41 -54 47 -22 4 -47 7 -53 5 -7 -1 -13 3 -13 9 0 5 5 10 11 10 6 0
9 6 7 12 -6 16 -67 21 -83 8 -9 -8 -20 -2 -39 20 -14 18 -26 37 -26 44 0 21
-40 56 -64 56 -32 0 -39 -33 -17 -73 31 -56 33 -75 6 -42 -14 17 -25 36 -25
43 0 18 -38 72 -51 72 -12 0 -11 -37 2 -62 6 -11 8 -23 4 -26 -3 -3 -8 4 -12
16 -3 12 -9 22 -14 22 -5 0 -9 6 -9 14 0 7 -11 21 -25 30 -28 19 -32 19 -40 6z
m423 -261 l3 -54 -21 33 c-13 22 -18 41 -14 58 11 42 29 21 32 -37z m-55 12
c6 -23 -9 -130 -23 -162 -8 -20 -9 -16 -5 23 4 26 1 56 -5 67 -14 27 -2 101
15 95 7 -3 15 -13 18 -23z m37 -163 c-1 -30 -3 -38 -9 -28 -8 14 -4 70 5 70 2
0 4 -19 4 -42z m-10 -158 c-7 -43 -9 -83 -5 -89 3 -6 3 -21 -2 -34 -11 -31
-21 180 -10 213 8 23 9 24 19 6 7 -12 6 -42 -2 -96z m-57 42 c-3 -13 -9 -58
-13 -100 l-7 -77 -2 106 c0 58 2 109 6 112 11 12 23 -16 16 -41z m51 -352 c7
-154 15 -646 10 -570 -2 30 -10 111 -18 180 -7 69 -13 159 -12 200 1 41 2 131
4 199 1 68 4 122 6 120 2 -2 7 -60 10 -129z m-58 -254 c3 -139 2 -226 -4 -226
-18 0 -31 421 -14 453 10 20 13 -14 18 -227z m14 -306 c0 -11 -4 -20 -10 -20
-5 0 -10 9 -10 20 0 11 5 20 10 20 6 0 10 -9 10 -20z m-120 -11 c0 -5 -7 -9
-15 -9 -15 0 -20 12 -9 23 8 8 24 -1 24 -14z m-53 -5 c-3 -3 -12 -4 -19 -1 -8
3 -5 6 6 6 11 1 17 -2 13 -5z m173 -36 c0 -16 -3 -19 -11 -11 -6 6 -8 16 -5
22 11 17 16 13 16 -11z m-128 -30 c-13 -13 -24 5 -16 27 7 16 8 16 17 0 6 -11
6 -20 -1 -27z m125 -105 c-3 -10 -5 -2 -5 17 0 19 2 27 5 18 2 -10 2 -26 0
-35z m60 -201 c-4 -18 -12 -92 -17 -165 -8 -125 -8 -121 -5 75 1 113 7 212 11
220 13 18 21 -88 11 -130z m-68 -47 c-12 -116 -14 -124 -19 -77 -6 57 5 216
16 242 15 32 16 -36 3 -165z m-12 -217 c-2 -13 -4 -5 -4 17 -1 22 1 32 4 23 2
-10 2 -28 0 -40z"/>
<path d="M4730 3000 c0 -25 22 -60 37 -60 17 -1 17 -1 0 -11 -24 -14 -5 -49
28 -49 20 0 25 5 25 25 0 14 -4 25 -10 25 -5 0 -16 15 -24 34 -12 29 -56 57
-56 36z"/>
<path d="M5498 2912 c-24 -3 -27 -8 -30 -55 -5 -64 5 -79 26 -38 9 17 25 35
36 41 39 21 17 58 -32 52z"/>
<path d="M5845 2880 c3 -5 15 -10 26 -10 11 0 17 5 14 10 -3 6 -15 10 -26 10
-11 0 -17 -4 -14 -10z"/>
<path d="M4792 2828 c-1 -45 22 -93 38 -83 6 4 9 33 9 66 -2 54 -3 59 -24 59
-20 0 -23 -5 -23 -42z"/>
<path d="M5970 2821 c0 -11 3 -27 6 -36 6 -14 8 -14 25 1 23 21 24 34 4 34 -8
0 -15 5 -15 10 0 6 -4 10 -10 10 -5 0 -10 -9 -10 -19z"/>
<path d="M6069 2729 c-8 -13 -19 -33 -24 -44 -8 -17 -10 -14 -13 18 -2 20 -6
37 -10 37 -21 -1 -39 -30 -45 -70 -3 -25 -19 -76 -34 -115 -25 -61 -32 -70
-58 -75 -22 -4 -31 -11 -33 -29 -3 -21 0 -23 22 -19 30 6 37 -19 9 -28 -10 -3
-25 -8 -33 -11 -13 -4 -12 -6 3 -17 21 -16 22 -26 3 -26 -24 0 -31 -58 -10
-81 16 -18 18 -39 16 -187 0 -92 2 -176 5 -186 5 -19 6 -19 19 -1 12 16 14 17
14 2 0 -21 -21 -67 -31 -67 -4 0 -9 7 -13 15 -10 28 -26 15 -26 -20 0 -22 6
-38 15 -41 11 -5 8 -11 -13 -29 -25 -22 -26 -27 -28 -136 -1 -64 2 -116 7
-120 6 -3 6 -22 1 -50 -5 -24 -7 -69 -3 -99 6 -51 8 -55 30 -52 14 2 40 15 58
29 25 19 33 33 33 56 0 43 27 179 50 252 30 94 35 135 17 135 -17 0 -30 27
-21 42 4 5 19 8 34 4 20 -3 30 -1 34 10 11 28 6 36 -17 32 -20 -4 -22 -1 -19
29 4 35 42 69 42 38 0 -21 29 -19 36 3 3 9 15 36 26 58 13 27 18 50 13 64 -4
14 -3 20 3 16 12 -7 37 21 47 52 5 16 1 30 -11 44 -18 19 -18 20 0 34 15 11
17 16 7 28 -10 12 -10 20 3 38 21 30 20 67 -1 75 -10 4 -21 11 -24 16 -10 15
-33 2 -45 -24 -52 -115 -67 -142 -72 -131 -2 8 0 24 6 35 28 60 46 105 53 132
4 16 21 76 38 132 17 56 32 105 33 110 3 13 -23 83 -31 83 -10 0 -61 -104 -61
-124 0 -8 -4 -18 -10 -21 -5 -3 -10 -17 -10 -30 0 -13 -4 -27 -10 -30 -18 -11
-9 43 20 120 16 42 32 113 28 131 -3 16 -5 15 -19 -7z m-129 -774 c-6 -19 -16
-35 -21 -35 -14 0 -11 34 8 71 22 42 30 17 13 -36z m5 -335 c3 -5 1 -10 -4
-10 -6 0 -11 5 -11 10 0 6 2 10 4 10 3 0 8 -4 11 -10z m-48 -162 c-3 -7 -5 -2
-5 12 0 14 2 19 5 13 2 -7 2 -19 0 -25z m0 -50 c-3 -8 -6 -5 -6 6 -1 11 2 17
5 13 3 -3 4 -12 1 -19z"/>
<path d="M1888 2704 c-3 -3 -20 -6 -37 -6 -27 -1 -31 -4 -25 -22 12 -38 23
-42 50 -13 13 15 29 27 35 27 6 0 7 5 4 10 -7 11 -19 13 -27 4z"/>
<path d="M1660 2624 c0 -8 5 -12 10 -9 6 4 8 11 5 16 -9 14 -15 11 -15 -7z"/>
<path d="M1666 2582 c-8 -13 9 -65 22 -70 18 -6 24 21 13 51 -10 27 -25 35
-35 19z"/>
<path d="M4766 2555 c-3 -8 -3 -29 1 -46 4 -23 10 -29 27 -27 17 2 20 9 18 33
-6 47 -33 72 -46 40z"/>
<path d="M1117 2483 c-12 -12 -7 -50 8 -63 12 -10 15 -7 21 14 10 40 -8 70
-29 49z"/>
<path d="M4785 2449 c-10 -16 4 -59 19 -59 17 0 28 27 21 51 -7 21 -30 25 -40
8z"/>
<path d="M4894 2426 c-7 -28 2 -49 17 -41 12 8 12 52 -1 60 -5 3 -12 -5 -16
-19z"/>
<path d="M5480 2441 l-34 -6 -1 -95 0 -95 35 3 c19 2 40 10 46 18 14 18 6 56
-13 67 -11 7 -11 12 -3 22 8 10 7 16 -6 23 -16 9 -15 10 4 16 15 5 22 16 22
32 0 13 -3 23 -7 23 -5 -1 -24 -4 -43 -8z"/>
<path d="M6138 2405 c-3 -13 -3 -27 0 -30 9 -9 32 17 32 36 0 28 -27 23 -32
-6z"/>
<path d="M6461 2394 c0 -11 3 -14 6 -6 3 7 2 16 -1 19 -3 4 -6 -2 -5 -13z"/>
<path d="M1115 2390 c-3 -6 -3 -20 0 -31 6 -18 9 -19 21 -7 8 8 12 22 8 31 -7
19 -20 22 -29 7z"/>
<path d="M4885 2350 c-8 -13 4 -32 16 -25 12 8 12 35 0 35 -6 0 -13 -4 -16
-10z"/>
<path d="M6327 2284 c-4 -24 -1 -44 8 -58 19 -26 19 -36 0 -36 -20 0 -19 -24
1 -41 12 -10 15 -24 11 -54 -4 -27 -1 -51 8 -69 8 -16 15 -37 15 -47 0 -16 -5
-13 -29 13 -16 18 -31 31 -34 28 -2 -3 -21 -31 -41 -63 -37 -56 -38 -58 -23
-90 9 -17 19 -44 22 -59 4 -16 10 -28 14 -28 4 0 37 46 74 103 75 113 71 92
45 262 -8 50 -20 100 -26 112 -7 12 -12 31 -12 42 0 36 -27 23 -33 -15z"/>
<path d="M4891 2284 c0 -11 3 -14 6 -6 3 7 2 16 -1 19 -3 4 -6 -2 -5 -13z"/>
<path d="M4330 2220 c0 -5 5 -10 10 -10 6 0 10 5 10 10 0 6 -4 10 -10 10 -5 0
-10 -4 -10 -10z"/>
<path d="M1890 2169 c0 -5 5 -7 10 -4 6 3 10 8 10 11 0 2 -4 4 -10 4 -5 0 -10
-5 -10 -11z"/>
<path d="M1037 2137 c-3 -7 11 -46 29 -87 30 -65 33 -78 23 -102 -12 -30 -5
-144 11 -163 4 -5 10 -30 13 -55 6 -58 34 -134 86 -237 39 -78 71 -112 57 -60
-3 12 -11 65 -16 117 -5 52 -17 133 -25 180 -27 144 -35 203 -35 268 0 51 -3
62 -17 62 -9 0 -36 20 -60 45 -45 47 -58 53 -66 32z"/>
<path d="M1152 2128 c2 -13 8 -23 13 -23 6 0 11 10 13 23 2 15 -2 22 -13 22
-11 0 -15 -7 -13 -22z"/>
<path d="M2961 2131 c-30 -5 -57 -30 -34 -32 4 0 38 -2 75 -5 78 -6 95 7 38
30 -22 9 -41 15 -43 15 -1 -1 -17 -4 -36 -8z"/>
<path d="M4078 2133 c0 -4 -1 -15 -2 -23 -1 -11 -19 -17 -66 -22 -36 -4 -85
-14 -110 -21 -25 -8 -70 -22 -101 -31 -31 -10 -65 -24 -75 -31 -18 -14 -18
-14 1 -15 11 0 36 4 55 9 60 16 106 20 121 11 19 -12 4 -23 -36 -26 -39 -3
-75 -20 -75 -34 0 -15 44 -12 66 5 10 8 31 15 45 15 29 0 54 23 44 40 -4 6 4
10 18 10 14 0 30 6 36 13 6 8 29 19 52 26 30 9 39 16 35 28 -4 10 1 17 14 20
12 3 19 11 17 17 -4 13 -36 21 -39 9z"/>
<path d="M1696 2112 c-8 -13 -3 -103 6 -108 4 -3 5 -11 1 -17 -10 -16 -4 -69
10 -85 6 -8 12 -24 14 -35 6 -46 14 -67 24 -67 8 0 9 12 4 38 -9 41 -9 52 1
100 3 18 2 38 -4 45 -7 8 -7 30 0 66 7 42 7 56 -4 62 -16 11 -45 11 -52 1z"/>
<path d="M1808 2103 c-9 -15 -7 -173 2 -173 10 0 18 161 9 173 -4 5 -9 5 -11
0z"/>
<path d="M1867 2033 c-2 -43 -1 -82 4 -87 4 -5 6 -29 2 -53 -5 -37 -3 -43 12
-43 15 0 17 6 11 41 -5 30 -3 44 8 53 10 7 15 36 18 86 3 74 3 75 -23 78 -26
3 -26 2 -32 -75z"/>
<path d="M6224 2083 c-10 -16 -17 -32 -16 -37 2 -4 -8 -22 -21 -40 -35 -45
-67 -112 -67 -137 0 -12 -7 -30 -16 -40 -22 -24 -11 -51 18 -47 26 3 37 41 19
62 -9 10 -5 15 16 19 21 5 33 17 49 54 24 55 54 137 61 171 8 32 -20 29 -43
-5z"/>
<path d="M3825 2080 c4 -6 11 -8 16 -5 14 9 11 15 -7 15 -8 0 -12 -5 -9 -10z"/>
<path d="M4845 2060 c3 -5 10 -10 16 -10 5 0 9 5 9 10 0 6 -7 10 -16 10 -8 0
-12 -4 -9 -10z"/>
<path d="M2860 1950 c-13 -8 -12 -11 5 -24 36 -27 53 -19 39 18 -7 18 -22 20
-44 6z"/>
<path d="M6185 1823 c-12 -29 -13 -44 -6 -61 6 -13 11 -35 10 -50 l0 -27 -16
23 c-17 24 -43 30 -43 8 0 -7 -7 -19 -15 -26 -12 -10 -13 -6 -8 23 4 26 1 36
-12 41 -14 5 -17 2 -13 -19 4 -17 1 -25 -8 -25 -18 0 -44 -52 -44 -86 0 -15
-6 -35 -14 -43 -7 -9 -18 -42 -24 -75 -7 -32 -19 -73 -27 -90 -10 -22 7 -8 62
49 100 105 233 272 233 293 0 28 -34 102 -47 102 -7 0 -20 -17 -28 -37z"/>
<path d="M5090 1839 c0 -5 5 -7 10 -4 6 3 10 8 10 11 0 2 -4 4 -10 4 -5 0 -10
-5 -10 -11z"/>
<path d="M5452 1753 c-4 -10 -6 -31 -2 -48 3 -16 2 -55 -3 -85 -6 -37 -4 -67
4 -92 6 -20 9 -49 6 -64 -8 -41 15 -125 32 -122 16 3 40 84 41 133 0 17 5 36
11 42 8 8 9 24 3 50 -4 21 -7 70 -6 110 1 39 -1 74 -5 76 -5 3 -22 8 -40 11
-25 6 -33 3 -41 -11z"/>
<path d="M4066 1661 c-4 -7 -5 -15 -2 -18 9 -9 19 4 14 18 -4 11 -6 11 -12 0z"/>
<path d="M1918 1534 c-4 -34 3 -50 16 -37 9 10 7 61 -3 67 -5 3 -11 -10 -13
-30z"/>
<path d="M1757 1514 c-11 -11 -9 -64 3 -64 18 0 30 36 17 54 -7 9 -16 14 -20
10z"/>
<path d="M1907 1447 c-7 -18 0 -303 8 -328 4 -11 10 -19 15 -19 17 0 22 46 23
202 2 149 1 153 -19 156 -12 2 -24 -3 -27 -11z"/>
<path d="M1751 1426 c-7 -8 -11 -34 -10 -58 0 -23 -2 -71 -5 -106 -4 -34 -4
-68 0 -74 4 -7 7 -31 5 -54 -3 -46 11 -63 35 -43 11 9 13 24 9 60 -4 29 -2 50
4 54 14 8 14 62 1 70 -7 4 -7 12 -2 18 5 7 9 38 10 69 2 47 -1 59 -17 67 -14
8 -22 7 -30 -3z"/>
<path d="M1845 1431 c-3 -6 -3 -37 1 -69 l8 -57 9 59 c8 57 -1 93 -18 67z"/>
<path d="M3382 1410 c0 -14 2 -19 5 -12 2 6 2 18 0 25 -3 6 -5 1 -5 -13z"/>
<path d="M2596 1295 c8 -50 14 -58 14 -19 0 16 -5 36 -11 44 -7 11 -8 4 -3
-25z"/>
<path d="M1840 1256 c0 -19 4 -38 10 -41 12 -7 24 39 16 60 -10 27 -26 16 -26
-19z"/>
<path d="M5450 1254 c0 -31 3 -35 23 -32 17 2 23 11 25 36 3 29 1 32 -22 32
-23 0 -26 -4 -26 -36z"/>
<path d="M5790 1249 c-17 -31 -7 -33 20 -4 19 20 20 25 7 25 -9 0 -21 -9 -27
-21z"/>
<path d="M4914 1179 c-22 -25 -10 -41 22 -29 58 22 96 10 107 -35 3 -12 5 -5
6 17 1 43 -3 47 -69 57 -41 7 -52 5 -66 -10z"/>
<path d="M5444 1165 c-3 -8 -3 -18 0 -24 4 -5 1 -13 -4 -16 -7 -4 -11 -34 -10
-68 1 -34 -1 -75 -6 -91 l-7 -29 41 29 c40 28 42 32 42 81 0 28 -4 54 -9 58
-5 3 -7 21 -4 40 5 31 3 35 -16 35 -12 0 -24 -7 -27 -15z"/>
<path d="M2687 1159 c-32 -18 -14 -85 19 -72 15 5 19 50 6 70 -5 8 -13 8 -25
2z"/>
<path d="M2516 1111 c-8 -13 11 -61 24 -61 5 0 10 16 10 35 0 34 -20 49 -34
26z"/>
<path d="M4918 1109 c-20 -11 -22 -18 -9 -38 8 -12 12 -12 25 -2 16 14 22 51
9 51 -5 0 -16 -5 -25 -11z"/>
<path d="M2685 976 c-4 -45 -3 -81 3 -92 7 -13 7 -26 1 -37 -8 -14 -13 -15
-30 -4 -17 10 -22 9 -34 -7 -12 -16 -17 -17 -30 -6 -9 8 -14 21 -12 31 6 21
-11 117 -25 142 -25 48 -53 -50 -38 -133 4 -24 3 -43 -2 -46 -6 -4 -7 -25 -4
-48 3 -22 8 -74 10 -115 3 -41 10 -79 14 -83 5 -5 29 -15 54 -23 44 -13 45
-12 41 6 -3 10 -1 19 5 19 6 0 12 -10 14 -22 2 -17 15 -26 59 -39 107 -31 111
-32 105 -12 -3 10 -13 81 -21 158 -9 77 -20 158 -25 180 -42 189 -47 204 -72
205 -3 0 -9 -33 -13 -74z m-8 -178 c-3 -8 -6 -5 -6 6 -1 11 2 17 5 13 3 -3 4
-12 1 -19z m-48 -56 c1 -15 -4 -22 -11 -19 -7 2 -13 9 -12 15 1 7 2 24 3 40 2
24 3 25 11 7 5 -11 9 -30 9 -43z m61 7 c0 -5 -4 -9 -10 -9 -5 0 -10 7 -10 16
0 8 5 12 10 9 6 -3 10 -10 10 -16z m-50 -75 c0 -8 -4 -14 -10 -14 -5 0 -10 9
-10 21 0 11 5 17 10 14 6 -3 10 -13 10 -21z"/>
<path d="M4990 1025 c-34 -10 -41 -14 -27 -20 23 -10 63 1 71 20 3 8 4 14 3
14 -1 -1 -22 -7 -47 -14z"/>
<path d="M3237 1005 c-23 -22 -21 -45 2 -45 26 0 33 13 23 40 -8 21 -9 21 -25
5z"/>
<path d="M4702 1011 c-8 -5 -12 -21 -10 -37 2 -23 9 -30 30 -32 22 -3 30 2 39
22 6 13 9 32 6 40 -7 17 -44 21 -65 7z"/>
<path d="M4912 999 c2 -7 10 -15 17 -17 8 -3 12 1 9 9 -2 7 -10 15 -17 17 -8
3 -12 -1 -9 -9z"/>
<path d="M4267 993 c-18 -18 -5 -41 26 -46 40 -6 47 -2 47 29 0 21 -5 24 -33
24 -19 0 -37 -3 -40 -7z"/>
<path d="M3873 980 c-21 -8 -22 -14 -20 -117 l2 -108 34 -3 c20 -2 37 2 42 10
13 20 11 56 -3 61 -9 3 -7 9 7 20 17 13 18 19 8 36 -8 13 -9 22 -3 26 14 9 12
59 -2 73 -14 14 -34 14 -65 2z"/>
<path d="M1755 970 c3 -5 8 -10 11 -10 2 0 4 5 4 10 0 6 -5 10 -11 10 -5 0 -7
-4 -4 -10z"/>
<path d="M2622 918 c2 -30 8 -53 16 -56 13 -4 16 26 6 77 -10 50 -25 36 -22
-21z"/>
<path d="M4703 914 c-7 -3 -13 -12 -13 -20 0 -11 10 -14 38 -12 25 2 37 8 37
18 0 15 -39 24 -62 14z"/>
<path d="M4273 904 c-27 -12 -11 -25 25 -22 20 2 36 8 35 13 -3 11 -41 17 -60
9z"/>
<path d="M2847 872 c-36 -4 -42 -21 -24 -64 9 -22 11 -40 6 -51 -7 -11 -4 -20
11 -30 17 -12 18 -16 7 -25 -16 -14 -11 -66 8 -82 20 -16 75 14 75 41 0 11
-12 31 -26 44 -24 22 -24 24 -7 34 17 10 17 12 -5 29 l-24 18 22 15 c17 11 20
20 15 41 -8 30 -18 35 -58 30z"/>
<path d="M1936 856 c21 -15 30 -14 19 3 -3 6 -14 11 -23 11 -13 0 -13 -2 4
-14z"/>
<path d="M4691 856 c-7 -8 -11 -30 -9 -48 3 -28 7 -34 31 -36 16 -2 35 2 43 9
17 14 19 60 2 77 -16 16 -53 15 -67 -2z"/>
<path d="M4260 810 c0 -26 3 -30 29 -30 32 0 56 22 47 45 -3 9 -18 15 -41 15
-32 0 -35 -2 -35 -30z"/>
<path d="M3550 485 c-7 -13 -9 -35 -5 -54 6 -26 11 -31 36 -31 17 0 40 5 51
11 15 8 22 8 28 -1 9 -15 30 -5 30 14 0 7 -7 21 -15 32 -15 19 -16 19 -13 -1
2 -12 -3 -20 -12 -20 -9 0 -14 7 -12 18 8 50 -64 76 -88 32z"/>
</g>
</svg>
